<svg width="130" height="20" viewBox="0 0 130 20" fill="none" xmlns="http://www.w3.org/2000/svg">
<path d="M89.8115 8.78242C88.5082 15.9 80.0003 20 80.0003 20C80.0003 20 71.4923 15.9 70.1878 8.78242C69.3878 4.41538 71.1357 0.0224188 75.5791 6.58912e-05C78.8892 -0.0164046 80.0003 3.51532 80.0003 3.51532C80.0003 3.51532 81.1115 -0.0175811 84.4204 6.58912e-05C88.8738 0.0224188 90.6116 4.41655 89.8115 8.78242Z" fill="#25314C"/>
<path d="M46.6667 0H33.3333C31.1111 0 30 1.33333 30 4V16C30 18.6667 31.1111 20 33.3333 20H46.6667C48.8889 20 50 18.6667 50 16V4C50 1.33333 48.8889 0 46.6667 0ZM46.601 6.14134L41.1434 10.904C40.8012 11.2027 40.4 11.352 40 11.352C39.6 11.352 39.1977 11.2027 38.8566 10.9053L33.399 6.14134C33.0268 5.81734 32.9445 5.19067 33.2156 4.744C33.4856 4.29867 34.0043 4.19734 34.3799 4.52401L39.8378 9.28666C39.9356 9.37066 40.0655 9.37199 40.1633 9.28666L45.6212 4.52401C45.9956 4.19734 46.5155 4.29867 46.7855 4.744C47.0566 5.192 46.9732 5.81734 46.601 6.14134Z" fill="#25314C"/>
<path d="M114.679 4.21053C114.679 1.88842 117.071 0 120.012 0C122.953 0 125.345 1.88842 125.345 4.21053C125.345 6.53263 122.953 8.42105 120.012 8.42105C117.071 8.42105 114.679 6.53263 114.679 4.21053ZM122.667 10.5263H117.333C111.92 10.5263 110 13.6558 110 16.3358C110 18.7327 111.615 20 114.671 20H125.329C128.385 20 130 18.7327 130 16.3358C130 13.6558 128.08 10.5263 122.667 10.5263Z" fill="#25314C"/>
<path d="M10.6643 18.251C10.7533 18.406 10.7523 18.598 10.6623 18.752C10.2063 19.533 9.39829 20 8.50029 20C7.60229 20 6.79429 19.533 6.33829 18.752C6.24829 18.598 6.24729 18.406 6.33629 18.251C6.42529 18.096 6.5903 18 6.7703 18H10.2303C10.4093 18 10.5743 18.096 10.6643 18.251ZM16.8913 16.188C16.8723 16.165 14.9953 13.782 14.9953 11V7.495C14.9953 3.914 12.0813 1 8.50029 1C4.91929 1 2.00529 3.914 2.00529 7.495V11C2.00529 13.781 0.129295 16.164 0.109295 16.188C-0.0107046 16.338 -0.0337022 16.544 0.0492978 16.717C0.132298 16.89 0.307295 17 0.499295 17H16.4993C16.6913 17 16.8663 16.89 16.9493 16.717C17.0343 16.543 17.0103 16.338 16.8913 16.188Z" fill="#25314C"/>
</svg>
