<svg width="180" height="31" viewBox="0 0 180 31" fill="none" xmlns="http://www.w3.org/2000/svg">
<path fill-rule="evenodd" clip-rule="evenodd" d="M29.652 28.9194L22.6606 21.9336C24.4976 19.7186 25.6034 16.8766 25.6034 13.774C25.6034 6.70821 19.8714 0.979492 12.8017 0.979492C5.73195 0.979492 0 6.70821 0 13.774C0 20.8397 5.73195 26.5684 12.8017 26.5684C15.9045 26.5684 18.7497 25.4633 20.9659 23.6289L27.9556 30.6147C28.1957 30.8546 28.4998 30.9665 28.8038 30.9665C29.1078 30.9665 29.4119 30.8546 29.652 30.6147C30.116 30.1509 30.116 29.3832 29.652 28.9194Z" fill="#25314C"/>
<path d="M129.717 14.1474C127.762 24.8192 115 30.9665 115 30.9665C115 30.9665 102.238 24.8192 100.282 14.1474C99.0817 7.59969 101.704 1.01311 108.369 0.979591C113.334 0.954896 115 6.25019 115 6.25019C115 6.25019 116.667 0.953132 121.631 0.979591C128.311 1.01311 130.917 7.60146 129.717 14.1474Z" fill="#25314C"/>
<path d="M75 0.979492H55C51.6667 0.979492 50 2.97863 50 6.9769V24.9691C50 28.9674 51.6667 30.9665 55 30.9665H75C78.3333 30.9665 80 28.9674 80 24.9691V6.9769C80 2.97863 78.3333 0.979492 75 0.979492ZM74.9015 10.1875L66.7151 17.3284C66.2018 17.7762 65.6 18.0001 65 18.0001C64.4 18.0001 63.7966 17.7762 63.2849 17.3304L55.0985 10.1875C54.5401 9.70172 54.4167 8.76212 54.8234 8.09241C55.2284 7.4247 56.0065 7.27278 56.5698 7.76257L64.7567 14.9035C64.9033 15.0294 65.0983 15.0314 65.245 14.9035L73.4318 7.76257C73.9935 7.27278 74.7732 7.4247 75.1782 8.09241C75.5849 8.76412 75.4599 9.70172 74.9015 10.1875Z" fill="#25314C"/>
<path d="M157.018 7.29255C157.018 3.8109 160.606 0.979492 165.018 0.979492C169.43 0.979492 173.018 3.8109 173.018 7.29255C173.018 10.7742 169.43 13.6056 165.018 13.6056C160.606 13.6056 157.018 10.7742 157.018 7.29255ZM169 16.7621H161C152.88 16.7621 150 21.4544 150 25.4726C150 29.0663 152.422 30.9665 157.006 30.9665H172.994C177.578 30.9665 180 29.0663 180 25.4726C180 21.4544 177.12 16.7621 169 16.7621Z" fill="#25314C"/>
</svg>
