<svg width="44" height="44" viewBox="0 0 44 44" fill="none" xmlns="http://www.w3.org/2000/svg">
<g clip-path="url(#clip0_882_82)">
<path d="M2.78525 23.7249C2.78525 23.7249 1.2084 33.39 10.8826 39.8543C10.8826 39.8543 15.68 44.0029 22.9935 42.2326C22.9935 42.2326 31.5279 42.6599 35.6733 37.8408C35.6733 37.8408 41.6465 32.9608 41.2202 24.2989C41.2202 24.2989 39.2713 28.6907 32.2306 29.118C32.2306 29.118 26.1652 29.4024 22.4155 23.2832C22.4155 23.2832 18.2394 28.9356 13.8503 28.9356C13.8503 28.9356 7.62958 30.5289 2.78525 23.7231V23.7249Z" fill="black"/>
<path d="M3.47876 10.0884L3.84362 0.078125C3.84362 0.078125 9.24789 3.45779 13.554 3.03578H30.6085C30.6085 3.03578 34.239 3.79576 40.5717 0.078125V9.70927C40.5717 9.70927 38.2073 6.58353 33.9013 5.9076C33.9013 5.9076 26.5553 4.13372 22.419 11.9052C22.419 11.9052 19.464 5.65368 13.1313 5.99164C13.1313 5.99164 8.43328 4.55216 3.47876 10.0866V10.0884Z" fill="black" stroke="#231F20" stroke-width="0.5" stroke-miterlimit="10"/>
<path d="M12.6003 27.2996C18.021 27.2996 22.4154 22.9027 22.4154 17.4789C22.4154 12.0551 18.021 7.6582 12.6003 7.6582C7.17953 7.6582 2.78516 12.0551 2.78516 17.4789C2.78516 22.9027 7.17953 27.2996 12.6003 27.2996Z" stroke="black" stroke-width="4" stroke-miterlimit="10"/>
<path d="M32.2306 27.2996C37.6514 27.2996 42.0457 22.9027 42.0457 17.4789C42.0457 12.0551 37.6514 7.6582 32.2306 7.6582C26.8099 7.6582 22.4155 12.0551 22.4155 17.4789C22.4155 22.9027 26.8099 27.2996 32.2306 27.2996Z" stroke="black" stroke-width="4" stroke-miterlimit="10"/>
<path d="M29.1298 23.66C30.8173 23.66 32.1853 22.2662 32.1853 20.5468C32.1853 18.8274 30.8173 17.4336 29.1298 17.4336C27.4422 17.4336 26.0742 18.8274 26.0742 20.5468C26.0742 22.2662 27.4422 23.66 29.1298 23.66Z" fill="black"/>
<path d="M29.1295 22.4154C29.9171 22.4154 30.5555 21.765 30.5555 20.9626C30.5555 20.1602 29.9171 19.5098 29.1295 19.5098C28.342 19.5098 27.7036 20.1602 27.7036 20.9626C27.7036 21.765 28.342 22.4154 29.1295 22.4154Z" fill="white"/>
<path d="M15.6852 23.66C17.3727 23.66 18.7407 22.2662 18.7407 20.5468C18.7407 18.8274 17.3727 17.4336 15.6852 17.4336C13.9977 17.4336 12.6296 18.8274 12.6296 20.5468C12.6296 22.2662 13.9977 23.66 15.6852 23.66Z" fill="black"/>
<path d="M15.6852 22.4154C16.4727 22.4154 17.1111 21.765 17.1111 20.9626C17.1111 20.1602 16.4727 19.5098 15.6852 19.5098C14.8977 19.5098 14.2593 20.1602 14.2593 20.9626C14.2593 21.765 14.8977 22.4154 15.6852 22.4154Z" fill="white"/>
<path d="M14.1953 42.2922V40.1857C14.1953 40.1857 15.0858 38.7873 16.0973 40.1857V42.2922H14.1953Z" fill="white"/>
<path d="M16.6318 42.2922V40.1857C16.6318 40.1857 17.5223 38.7873 18.5338 40.1857V42.2922H16.6318Z" fill="white"/>
<path d="M19.1155 42.2922V40.1857C19.1155 40.1857 20.006 38.7873 21.0174 40.1857V42.2922H19.1155Z" fill="white"/>
<path d="M22.9971 42.2922V40.1857C22.9971 40.1857 23.8875 38.7873 24.899 40.1857V42.2922H22.9971Z" fill="white"/>
<path d="M25.4155 42.2922V40.1857C25.4155 40.1857 26.306 38.7873 27.3175 40.1857V42.2922H25.4155Z" fill="white"/>
<path d="M27.9932 42.2922V40.1857C27.9932 40.1857 28.8836 38.7873 29.8951 40.1857V42.2922H27.9932Z" fill="white"/>
<path d="M11.9899 44.0004H39.0618C39.0618 44.0004 40.7904 43.2941 39.0618 42.2927H8.53456C8.53456 42.2927 3.58185 42.1031 1.91108 39.5657C1.91108 39.5657 0.816499 38.9863 1.0477 40.2542C1.0477 40.2542 2.89006 44.0004 11.9917 44.0004H11.9899Z" fill="black"/>
<path d="M9.92882 40.3203L9.39056 41.0892C9.39056 41.0892 4.90386 41.5631 1.95427 36.2915C1.95427 36.2915 -0.225858 32.7348 0.0197908 28.6202C0.0197908 28.6202 0.182353 24.7917 1.9326 21.8984C1.9326 21.8984 1.60748 28.7561 3.0326 31.4992C3.0326 31.4992 4.28974 35.9714 9.93063 40.3203H9.92882Z" fill="black"/>
<path d="M34.658 40.9275L33.8994 40.3624C33.8994 40.3624 36.6323 39.1983 39.5168 34.5401C39.5168 34.5401 42.2984 29.9319 42.0456 25.6796V22.9956L42.3508 22.4395C42.3508 22.4395 43.6748 24.5424 43.8825 27.5841C43.8825 27.5841 44.5038 31.282 42.88 34.5991C42.88 34.5991 42.0347 37.8142 38.6823 39.9547C38.6823 39.9547 36.4191 41.3209 34.658 40.9293V40.9275Z" fill="black"/>
</g>
<defs>
<clipPath id="clip0_882_82">
<rect width="44" height="44" fill="white"/>
</clipPath>
</defs>
</svg>
