<svg width="812" height="51" viewBox="0 0 812 51" fill="none" xmlns="http://www.w3.org/2000/svg">
<rect y="8" width="812" height="14" rx="7" fill="#D9D9D9"/>
<rect x="229" y="8" width="354" height="14" rx="7" fill="#087DBF"/>
<circle cx="224" cy="15" r="15" fill="#087DBF"/>
<circle cx="589" cy="15" r="15" fill="#087DBF"/>
<circle cx="224" cy="15" r="10" fill="#D9D9D9"/>
<circle cx="589" cy="15" r="10" fill="#D9D9D9"/>
<path d="M218.356 40.118H214.926V42.106C215.365 41.9007 215.831 41.798 216.326 41.798C216.849 41.798 217.315 41.9193 217.726 42.162C218.137 42.4047 218.459 42.7593 218.692 43.226C218.925 43.6927 219.042 44.2433 219.042 44.878C219.042 45.5407 218.888 46.1287 218.58 46.642C218.281 47.146 217.847 47.538 217.278 47.818C216.718 48.098 216.069 48.238 215.332 48.238C214.053 48.238 213.003 47.762 212.182 46.81L213.414 45.662C213.927 46.2687 214.539 46.572 215.248 46.572C215.733 46.572 216.107 46.4273 216.368 46.138C216.639 45.8487 216.774 45.4333 216.774 44.892C216.774 43.8373 216.331 43.31 215.444 43.31C215.257 43.31 215.075 43.338 214.898 43.394C214.721 43.4407 214.525 43.5247 214.31 43.646H212.812V38.536H218.608L218.356 40.118ZM225.794 40.118H222.364V42.106C222.802 41.9007 223.269 41.798 223.764 41.798C224.286 41.798 224.753 41.9193 225.164 42.162C225.574 42.4047 225.896 42.7593 226.13 43.226C226.363 43.6927 226.48 44.2433 226.48 44.878C226.48 45.5407 226.326 46.1287 226.018 46.642C225.719 47.146 225.285 47.538 224.716 47.818C224.156 48.098 223.507 48.238 222.77 48.238C221.491 48.238 220.441 47.762 219.62 46.81L220.852 45.662C221.365 46.2687 221.976 46.572 222.686 46.572C223.171 46.572 223.544 46.4273 223.806 46.138C224.076 45.8487 224.212 45.4333 224.212 44.892C224.212 43.8373 223.768 43.31 222.882 43.31C222.695 43.31 222.513 43.338 222.336 43.394C222.158 43.4407 221.962 43.5247 221.748 43.646H220.25V38.536H226.046L225.794 40.118ZM234.088 45.2C234.088 45.928 233.86 46.544 233.402 47.048C232.945 47.5427 232.31 47.874 231.498 48.042V50.254H229.902V48.126C228.67 48.0233 227.658 47.5847 226.864 46.81L227.998 45.578C228.67 46.2033 229.445 46.516 230.322 46.516C230.78 46.516 231.139 46.4133 231.4 46.208C231.662 46.0027 231.792 45.7227 231.792 45.368C231.792 45.1347 231.746 44.9433 231.652 44.794C231.559 44.6353 231.391 44.4953 231.148 44.374C230.906 44.2433 230.556 44.108 230.098 43.968C229.072 43.6413 228.339 43.254 227.9 42.806C227.471 42.358 227.256 41.784 227.256 41.084C227.256 40.384 227.499 39.8007 227.984 39.334C228.47 38.858 229.109 38.564 229.902 38.452V36.38H231.498V38.452C232.422 38.6013 233.197 38.9793 233.822 39.586L232.8 40.79C232.184 40.2673 231.508 40.006 230.77 40.006C230.378 40.006 230.07 40.0853 229.846 40.244C229.622 40.4027 229.51 40.6267 229.51 40.916C229.51 41.1213 229.557 41.2893 229.65 41.42C229.753 41.5507 229.93 41.6767 230.182 41.798C230.434 41.91 230.812 42.0453 231.316 42.204C232.259 42.5027 232.954 42.876 233.402 43.324C233.86 43.772 234.088 44.3973 234.088 45.2Z" fill="black"/>
<path d="M579.348 48H577.178V40.692L575.148 41.938L574.182 40.468L577.374 38.536H579.348V48ZM584.596 38.34C585.753 38.34 586.635 38.7647 587.242 39.614C587.858 40.4633 588.166 41.686 588.166 43.282C588.166 44.8687 587.858 46.0913 587.242 46.95C586.635 47.8087 585.753 48.238 584.596 48.238C583.439 48.238 582.552 47.8087 581.936 46.95C581.329 46.0913 581.026 44.8687 581.026 43.282C581.026 41.686 581.329 40.4633 581.936 39.614C582.552 38.7647 583.439 38.34 584.596 38.34ZM584.596 39.978C584.279 39.978 584.027 40.0807 583.84 40.286C583.653 40.4913 583.513 40.832 583.42 41.308C583.336 41.784 583.294 42.442 583.294 43.282C583.294 44.122 583.336 44.7847 583.42 45.27C583.513 45.746 583.653 46.0867 583.84 46.292C584.027 46.4973 584.279 46.6 584.596 46.6C584.913 46.6 585.165 46.502 585.352 46.306C585.539 46.1007 585.674 45.76 585.758 45.284C585.851 44.7987 585.898 44.1313 585.898 43.282C585.898 42.4327 585.851 41.77 585.758 41.294C585.674 40.8087 585.539 40.468 585.352 40.272C585.165 40.076 584.913 39.978 584.596 39.978ZM595.04 40.118H591.61V42.106C592.048 41.9007 592.515 41.798 593.01 41.798C593.532 41.798 593.999 41.9193 594.41 42.162C594.82 42.4047 595.142 42.7593 595.376 43.226C595.609 43.6927 595.726 44.2433 595.726 44.878C595.726 45.5407 595.572 46.1287 595.264 46.642C594.965 47.146 594.531 47.538 593.962 47.818C593.402 48.098 592.753 48.238 592.016 48.238C590.737 48.238 589.687 47.762 588.866 46.81L590.098 45.662C590.611 46.2687 591.222 46.572 591.932 46.572C592.417 46.572 592.79 46.4273 593.052 46.138C593.322 45.8487 593.458 45.4333 593.458 44.892C593.458 43.8373 593.014 43.31 592.128 43.31C591.941 43.31 591.759 43.338 591.582 43.394C591.404 43.4407 591.208 43.5247 590.994 43.646H589.496V38.536H595.292L595.04 40.118ZM603.334 45.2C603.334 45.928 603.106 46.544 602.648 47.048C602.191 47.5427 601.556 47.874 600.744 48.042V50.254H599.148V48.126C597.916 48.0233 596.904 47.5847 596.11 46.81L597.244 45.578C597.916 46.2033 598.691 46.516 599.568 46.516C600.026 46.516 600.385 46.4133 600.646 46.208C600.908 46.0027 601.038 45.7227 601.038 45.368C601.038 45.1347 600.992 44.9433 600.898 44.794C600.805 44.6353 600.637 44.4953 600.394 44.374C600.152 44.2433 599.802 44.108 599.344 43.968C598.318 43.6413 597.585 43.254 597.146 42.806C596.717 42.358 596.502 41.784 596.502 41.084C596.502 40.384 596.745 39.8007 597.23 39.334C597.716 38.858 598.355 38.564 599.148 38.452V36.38H600.744V38.452C601.668 38.6013 602.443 38.9793 603.068 39.586L602.046 40.79C601.43 40.2673 600.754 40.006 600.016 40.006C599.624 40.006 599.316 40.0853 599.092 40.244C598.868 40.4027 598.756 40.6267 598.756 40.916C598.756 41.1213 598.803 41.2893 598.896 41.42C598.999 41.5507 599.176 41.6767 599.428 41.798C599.68 41.91 600.058 42.0453 600.562 42.204C601.505 42.5027 602.2 42.876 602.648 43.324C603.106 43.772 603.334 44.3973 603.334 45.2Z" fill="black"/>
</svg>
